<svg xmlns="http://www.w3.org/2000/svg" viewBox="-69.87596130371094 136.43546849773662 714.7520141601562 323.6595327229665"><rect height="100%" width="100%" x="-69.87596130371094" y="136.43546849773662" fill="rgba(0, 43, 6, 1)"/> <svg xmlns="http://www.w3.org/2000/svg" xmlns:xlink="http://www.w3.org/1999/xlink" version="1.1" id="Layer_1" x="124.98997497558594" y="206.43546849773662" viewBox="104.5999984741211 215 779.7999267578125 239.60000610351562" xml:space="preserve" height="99.85895954993691" width="325.00000000000006" preserveAspectRatio="xMinYMin" enable-background="new 0 0 1000 650" style="overflow: visible;"><path class="st6" d="M141.3,343.5C141.2,343.6,141.1,343.7,141.3,343.5C141.1,343.5,141.2,343.5,141.3,343.5  C141.4,343.5,141.3,343.5,141.3,343.5z" style="fill: #FFFFFF; fill-opacity: 1;"></path><path class="st7" d="M421.5,215c0,0.1,0,0.2,0,0.3c74,0,148,0,222,0c0.4,0,0.8,0.2,1.2,0.3c0.1,0,0.2,0,0.3,0c0-0.2,0-0.4,0-0.6  C570.5,215,496,215,421.5,215z" style="fill: #FFFFFF; fill-opacity: 1;"></path><path class="st8" d="M638.2,222.3C638.2,222.3,638.2,222.3,638.2,222.3C638.2,222.3,638.2,222.3,638.2,222.3L638.2,222.3z" style="fill: #FFFFFF; fill-opacity: 1;"></path><path class="st16" d="M277.3,276.2c-0.3-0.5-0.6-1.1-1-1.5c-3.9-3.9-7.8-7.8-11.7-11.8c-0.2,0-0.5-0.1-0.6,0  c-42.5,42.5-85.1,85.1-127.6,127.7c-0.4,0.4-5.4,5.2-6.2,5.8c5.8-0.2,22.8-0.4,27.5-0.2c6.8-6.7,14.6-14.5,21.3-21.3  c11.1-11.2,22.2-22.4,33.3-33.6c11.2-11.3,22.4-22.6,33.6-33.9c10-10.1,20-20.2,30-30.3C276.3,276.8,276.9,276.5,277.3,276.2z" style="fill: #FFFFFF; fill-opacity: 1;"></path><path class="st16" d="M730.4,262.8c-3.9,3.9-7.8,7.9-11.8,11.8c-0.4,0.4-0.6,0.8-1,1.2c0.4,0.4,0.9,0.7,1.3,1.1  c5.7,5.7,11.5,11.5,17.2,17.2c11.4,11.4,22.7,22.9,34.1,34.4c9.9,10,19.9,20,29.8,30.1c12,12.1,24,24.2,36,36.3  c0.8,0.8,1.6,1.1,2.7,1.1c8.2,0,16.4,0,24.9,0c-0.3-0.4-0.5-0.7-0.7-0.9c-43.8-43.8-87.6-87.6-131.5-131.5  C731.1,263.3,730.7,263.1,730.4,262.8z" style="fill: #FFFFFF; fill-opacity: 1;"></path><path class="st16" d="M662.8,262.6c0.4,0.1,0.8,0.2,1.2,0.2c9.6,0,19.2,0,28.8,0c0.3,0,0.6-0.1,0.8-0.1c-0.6-0.6-1.2-1.2-1.9-1.9  c-2.6-2.6-5.3-5.3-7.9-7.9c-3.8-3.7-7.5-7.4-11.3-11c-3.4-3.3-6.8-6.6-10.1-9.8c-3.6-3.5-7.2-7-10.8-10.5c-1.9-1.8-3.7-3.6-5.6-5.3  c-0.3-0.3-0.7-0.4-1-0.7c-0.1,0-0.2,0-0.3,0c-2.1,2.2-4.1,4.3-6.2,6.5c-0.1,0.1-0.2,0.2-0.3,0.3c0,0,0,0,0,0  c-0.1,0.1-0.2,0.2-0.3,0.3c0,0,0,0,0,0c-0.1,0.1-0.2,0.2-0.3,0.3c-0.5,0.5-1.1,1.1-1.6,1.6c-0.1,0.4-0.1,0.9-0.4,1.1  c-1,1.2-2,2.4-3.1,3.4c-1.1,0.9-1.1,1.6,0,2.6c6.9,6.8,13.7,13.7,20.5,20.5c3.2,3.2,6.3,6.5,9.5,9.7  C662.5,262.1,662.7,262.4,662.8,262.6z" style="fill: #FFFFFF; fill-opacity: 1;"></path><path class="st8" d="M257.6,368.3c5.9,0,11.6,0,17.4,0c0-5.8,0-11.5,0-17.3c-5.7,0-11.5,0-17.4,0   C257.6,356.7,257.6,362.5,257.6,368.3z" style="fill: #FFFFFF; fill-opacity: 1;"></path><path class="st8" d="M257.6,390.4c5.7,0,11.5,0,17.4,0c0-5.8,0-11.5,0-17.3c-5.8,0-11.5,0-17.4,0   C257.6,378.8,257.6,384.5,257.6,390.4z" style="fill: #FFFFFF; fill-opacity: 1;"></path><path class="st8" d="M279.5,351c0,5.7,0,11.4,0,17.2c5.8,0,11.5,0,17.3,0c0-5.7,0-11.4,0-17.2C291.1,351,285.4,351,279.5,351z" style="fill: #FFFFFF; fill-opacity: 1;"></path><path class="st8" d="M279.5,390.4c5.8,0,11.5,0,17.3,0c0-5.7,0-11.5,0-17.3c-5.8,0-11.5,0-17.3,0   C279.5,378.8,279.5,384.6,279.5,390.4z" style="fill: #FFFFFF; fill-opacity: 1;"></path><path class="st8" d="M740.2,351c-5.7,0-11.4,0-17.3,0c0,5.7,0,11.4,0,17.2c5.7,0,11.4,0,17.3,0C740.2,362.6,740.2,356.9,740.2,351z   " style="fill: #FFFFFF; fill-opacity: 1;"></path><path class="st8" d="M722.9,373.1c0,5.8,0,11.5,0,17.3c5.7,0,11.5,0,17.3,0c0-5.7,0-11.5,0-17.3   C734.5,373.1,728.8,373.1,722.9,373.1z" style="fill: #FFFFFF; fill-opacity: 1;"></path><path class="st8" d="M701.1,368.3c5.8,0,11.5,0,17.2,0c0-5.8,0-11.5,0-17.3c-5.7,0-11.4,0-17.2,0   C701.1,356.7,701.1,362.5,701.1,368.3z" style="fill: #FFFFFF; fill-opacity: 1;"></path><path class="st8" d="M701.1,390.4c5.7,0,11.5,0,17.2,0c0-5.8,0-11.5,0-17.3c-5.7,0-11.5,0-17.2,0   C701.1,378.8,701.1,384.6,701.1,390.4z" style="fill: #FFFFFF; fill-opacity: 1;"></path><path class="st6" d="M104.6,314.4c0,0.1,0.1,0.1,0.1,0.1c0,0,0.1,0,0.2-0.1c0-0.1-0.1-0.2-0.1-0.2  C104.8,314.3,104.7,314.4,104.6,314.4z" style="fill: #FFFFFF; fill-opacity: 1;"></path><path class="st6" d="M105.1,314.9c0.1,0.1,0.2,0.1,0.3,0.2c0-0.1,0.1-0.2,0.1-0.2c-0.1-0.1-0.2-0.1-0.3-0.2  C105.1,314.7,105.1,314.8,105.1,314.9z" style="fill: #FFFFFF; fill-opacity: 1;"></path><path class="st6" d="M105.6,315.4C105.6,315.5,105.7,315.5,105.6,315.4c0.1,0,0.1,0,0.2-0.1c0,0,0-0.1-0.1-0.1  C105.7,315.3,105.6,315.4,105.6,315.4z" style="fill: #FFFFFF; fill-opacity: 1;"></path><path class="st6" d="M141.4,343.1c0.1-0.1,0.2-0.2,0.3-0.3c0.1,0.1,0.1,0.1,0.2,0.2c-0.1,0.1-0.2,0.2-0.3,0.3  C141.6,343.2,141.5,343.1,141.4,343.1z" style="fill: #FFFFFF; fill-opacity: 1;"></path><path class="st6" d="M141.6,343.3c-0.1,0.1-0.2,0.2-0.3,0.2c0,0,0,0,0,0c0-0.1,0.1-0.3,0.1-0.4C141.5,343.1,141.6,343.2,141.6,343.3  z" style="fill: #FFFFFF; fill-opacity: 1;"></path><path class="st8" d="M277.3,276.2c0.4,0.4,0.8,0.7,1.1,1.1c38.7,38.7,77.3,77.3,116,116c4.1-0.4,8.2-0.7,12.3-1.1  c16.7-1.4,34-2.5,51.8-3.1c-14.8-41.6-29.7-83.3-44.5-124.9c-0.4-1-0.8-1.3-1.9-1.3c-48.7,0-97.3,0-146,0c-0.5,0-1,0.1-1.5,0.1  c3.9,3.9,7.8,7.8,11.7,11.8C276.8,275.1,277,275.7,277.3,276.2z" style="fill: #FFFFFF; fill-opacity: 1;"></path><path class="st8" d="M415.6,258c1,0,1.6,0.2,1.9,1.3c15.4,43.2,30.7,86.4,46.1,129.6c3.4-0.1,6.7-0.2,10.1-0.3  c8.6-8.7,17.1-17.3,25.7-26c10.6-10.7,21.1-21.3,31.7-32c7.3-7.3,14.5-14.7,21.8-22.1c15.4-15.6,30.8-31.1,46.2-46.7  c12-12.1,23.9-24.3,35.9-36.4c0.3-0.3,0.6-0.6,0.9-0.9c0.5-0.5,1.1-1.1,1.6-1.6c0.1-0.1,0.2-0.2,0.3-0.3l0,0  c0.1-0.1,0.2-0.2,0.3-0.3c0.1-0.1,0.2-0.2,0.3-0.3c2.1-2.2,4.1-4.3,6.2-6.5c-0.4-0.1-0.8-0.3-1.2-0.3c-74,0-148,0-222,0  c-12.5,14.1-25.1,28.3-37.8,42.7c0.8,0,1.3,0,1.8,0C395.5,258,405.5,258,415.6,258z" style="fill: #FFFFFF; fill-opacity: 1;"></path><path class="st8" d="M528.9,388.7c5.3,0.2,10.7,0.4,15.8,0.7c2.8,0.1,5.6,0.3,8.4,0.4l12.3,0.6l17.3,1.3c5.8,0.4,11.8,0.9,17.7,1.4  c33.5-33.5,67-67,100.5-100.6c5.6-5.6,11.1-11.1,16.7-16.7c0.3-0.4,0.6-0.8,1-1.2c3.9-3.9,7.8-7.9,11.8-11.8c-0.3,0-0.7-0.1-1-0.1  c-11.9,0-23.8,0-35.7,0c-0.3,0-0.6,0.1-0.8,0.1c-9.6,0-19.2,0-28.8,0c-0.4,0-0.8-0.1-1.2-0.2c-0.5,0-1,0.1-1.6,0.1  c-9.4,0-18.8,0-28.2,0c-0.7,0-1.7,0.3-2.2,0.8c-41.6,41.5-83.2,83.1-124.8,124.7L528.9,388.7z" style="fill: #FFFFFF; fill-opacity: 1;"></path><path class="st6" d="M124.5,451.4c15.4-4.3,31-8.2,46.6-11.8c7.8-1.8,15.6-3.6,23.4-5.3l23.5-5.1l23.6-4.6l23.6-4.4l5.9-1.1l5.9-1  l11.9-1.9l11.9-1.9l11.9-1.8c31.7-4.9,63.6-8.4,95.5-11.1c32-2.8,64.1-3.9,96.2-3.8l24.1,0.4c8,0.3,16,0.7,24.1,1.1l12,0.6l12,0.9  c8,0.6,16,1.2,24,1.9c31.9,3,63.8,6.8,95.4,11.5c63.4,9.5,126.3,21.7,188.4,37.3l-0.8,3.3c-31.3-6.3-62.7-12.2-94.2-17.3  c-31.5-5.3-63-9.9-94.7-14.1c-31.6-4-63.3-7.5-95.1-10.1l-23.8-1.7l-11.9-0.8l-11.9-0.5c-7.9-0.3-15.9-0.8-23.8-1l-23.8-0.4  c-31.8-0.1-63.6,0.8-95.3,3.4l-11.9,0.8l-11.9,1.1c-7.9,0.8-15.9,1.4-23.8,2.2l-23.7,2.7c-7.9,0.8-15.8,2-23.7,2.9l-11.9,1.5  l-11.8,1.7c-7.9,1.2-15.8,2.2-23.7,3.5l-23.6,3.7l-23.6,4c-31.5,5.3-62.8,11.5-94,18.3L124.5,451.4z" style="fill: #FFFFFF; fill-opacity: 1;"></path></svg> <svg y="369.9750003814697" viewBox="1.7200000286102295 3.7300000190734863 209.50999450683594 20.1200008392334" x="182.74500274658203" height="20.1200008392334" width="209.50999450683594" style="overflow: visible;"><g fill="#FFFFFF" fill-opacity="1" style=""><path d="M10.45 19.48L7.21 13.44L3.70 13.44L3.70 19.48L1.72 19.48L1.72 4.55L6.67 4.55Q9.19 4.55 10.55 5.70Q11.90 6.85 11.90 9.04L11.90 9.04Q11.90 10.44 11.15 11.47Q10.40 12.51 9.05 13.02L9.05 13.02L12.56 19.36L12.56 19.48L10.45 19.48ZM3.70 6.17L3.70 11.83L6.73 11.83Q8.19 11.83 9.06 11.07Q9.93 10.32 9.93 9.04L9.93 9.04Q9.93 7.66 9.10 6.92Q8.27 6.18 6.72 6.17L6.72 6.17L3.70 6.17ZM18.97 19.69L18.97 19.69Q16.71 19.69 15.30 18.21Q13.88 16.72 13.88 14.24L13.88 14.24L13.88 13.89Q13.88 12.24 14.51 10.95Q15.15 9.65 16.28 8.92Q17.41 8.18 18.73 8.18L18.73 8.18Q20.90 8.18 22.10 9.61Q23.30 11.03 23.30 13.69L23.30 13.69L23.30 14.48L15.78 14.48Q15.82 16.12 16.74 17.13Q17.66 18.14 19.07 18.14L19.07 18.14Q20.08 18.14 20.77 17.73Q21.47 17.32 21.99 16.64L21.99 16.64L23.15 17.54Q21.76 19.69 18.97 19.69ZM18.73 9.74L18.73 9.74Q17.59 9.74 16.81 10.58Q16.03 11.41 15.84 12.92L15.84 12.92L21.40 12.92L21.40 12.78Q21.32 11.33 20.62 10.54Q19.92 9.74 18.73 9.74ZM27.55 8.39L27.55 19.48L25.66 19.48L25.66 8.39L27.55 8.39ZM25.50 5.44L25.50 5.44Q25.50 4.98 25.78 4.67Q26.07 4.35 26.62 4.35Q27.17 4.35 27.46 4.67Q27.75 4.98 27.75 5.44Q27.75 5.91 27.46 6.21Q27.17 6.52 26.62 6.52Q26.07 6.52 25.78 6.21Q25.50 5.91 25.50 5.44ZM30.59 8.39L32.38 8.39L32.44 9.78Q33.71 8.18 35.77 8.18L35.77 8.18Q39.28 8.18 39.31 12.15L39.31 12.15L39.31 19.48L37.42 19.48L37.42 12.14Q37.41 10.94 36.87 10.37Q36.33 9.79 35.19 9.79L35.19 9.79Q34.27 9.79 33.57 10.28Q32.87 10.78 32.48 11.58L32.48 11.58L32.48 19.48L30.59 19.48L30.59 8.39ZM43.02 8.39L45.83 16.91L48.58 8.39L50.52 8.39L46.54 19.48L45.10 19.48L41.08 8.39L43.02 8.39ZM56.82 19.69L56.82 19.69Q54.56 19.69 53.15 18.21Q51.73 16.72 51.73 14.24L51.73 14.24L51.73 13.89Q51.73 12.24 52.36 10.95Q52.99 9.65 54.13 8.92Q55.26 8.18 56.58 8.18L56.58 8.18Q58.74 8.18 59.94 9.61Q61.14 11.03 61.14 13.69L61.14 13.69L61.14 14.48L53.63 14.48Q53.67 16.12 54.59 17.13Q55.50 18.14 56.92 18.14L56.92 18.14Q57.92 18.14 58.62 17.73Q59.32 17.32 59.84 16.64L59.84 16.64L61.00 17.54Q59.61 19.69 56.82 19.69ZM56.58 9.74L56.58 9.74Q55.43 9.74 54.65 10.58Q53.87 11.41 53.69 12.92L53.69 12.92L59.25 12.92L59.25 12.78Q59.17 11.33 58.47 10.54Q57.77 9.74 56.58 9.74ZM63.34 8.39L65.13 8.39L65.19 9.78Q66.47 8.18 68.52 8.18L68.52 8.18Q72.03 8.18 72.06 12.15L72.06 12.15L72.06 19.48L70.17 19.48L70.17 12.14Q70.16 10.94 69.62 10.37Q69.08 9.79 67.94 9.79L67.94 9.79Q67.02 9.79 66.32 10.28Q65.63 10.78 65.24 11.58L65.24 11.58L65.24 19.48L63.34 19.48L63.34 8.39ZM75.60 5.70L77.50 5.70L77.50 8.39L79.57 8.39L79.57 9.85L77.50 9.85L77.50 16.73Q77.50 17.40 77.78 17.73Q78.05 18.07 78.72 18.07L78.72 18.07Q79.05 18.07 79.62 17.94L79.62 17.94L79.62 19.48Q78.87 19.69 78.17 19.69L78.17 19.69Q76.89 19.69 76.25 18.92Q75.60 18.15 75.60 16.73L75.60 16.73L75.60 9.85L73.58 9.85L73.58 8.39L75.60 8.39L75.60 5.70ZM83.85 8.39L83.85 19.48L81.95 19.48L81.95 8.39L83.85 8.39ZM81.80 5.44L81.80 5.44Q81.80 4.98 82.08 4.67Q82.36 4.35 82.91 4.35Q83.47 4.35 83.75 4.67Q84.04 4.98 84.04 5.44Q84.04 5.91 83.75 6.21Q83.47 6.52 82.91 6.52Q82.36 6.52 82.08 6.21Q81.80 5.91 81.80 5.44ZM86.88 8.39L88.68 8.39L88.74 9.78Q90.01 8.18 92.06 8.18L92.06 8.18Q95.58 8.18 95.61 12.15L95.61 12.15L95.61 19.48L93.71 19.48L93.71 12.14Q93.70 10.94 93.16 10.37Q92.62 9.79 91.49 9.79L91.49 9.79Q90.56 9.79 89.87 10.28Q89.17 10.78 88.78 11.58L88.78 11.58L88.78 19.48L86.88 19.48L86.88 8.39ZM98.02 13.84L98.02 13.84Q98.02 11.25 99.22 9.72Q100.42 8.18 102.40 8.18L102.40 8.18Q104.43 8.18 105.56 9.62L105.56 9.62L105.66 8.39L107.39 8.39L107.39 19.22Q107.39 21.37 106.11 22.61Q104.84 23.85 102.68 23.85L102.68 23.85Q101.48 23.85 100.33 23.34Q99.19 22.83 98.58 21.93L98.58 21.93L99.57 20.79Q100.79 22.30 102.55 22.30L102.55 22.30Q103.93 22.30 104.71 21.52Q105.48 20.74 105.48 19.33L105.48 19.33L105.48 18.38Q104.34 19.69 102.38 19.69L102.38 19.69Q100.43 19.69 99.22 18.12Q98.02 16.55 98.02 13.84ZM99.92 14.06L99.92 14.06Q99.92 15.93 100.69 17.01Q101.46 18.08 102.85 18.08L102.85 18.08Q104.64 18.08 105.48 16.45L105.48 16.45L105.48 11.38Q104.61 9.79 102.87 9.79L102.87 9.79Q101.48 9.79 100.70 10.87Q99.92 11.95 99.92 14.06ZM120.81 8.33L120.81 10.09Q120.38 10.02 119.88 10.02L119.88 10.02Q118.01 10.02 117.35 11.61L117.35 11.61L117.35 19.48L115.45 19.48L115.45 8.39L117.29 8.39L117.33 9.67Q118.26 8.18 119.97 8.18L119.97 8.18Q120.52 8.18 120.81 8.33L120.81 8.33ZM126.96 19.69L126.96 19.69Q124.71 19.69 123.29 18.21Q121.88 16.72 121.88 14.24L121.88 14.24L121.88 13.89Q121.88 12.24 122.51 10.95Q123.14 9.65 124.27 8.92Q125.41 8.18 126.73 8.18L126.73 8.18Q128.89 8.18 130.09 9.61Q131.29 11.03 131.29 13.69L131.29 13.69L131.29 14.48L123.77 14.48Q123.82 16.12 124.73 17.13Q125.65 18.14 127.07 18.14L127.07 18.14Q128.07 18.14 128.77 17.73Q129.47 17.32 129.99 16.64L129.99 16.64L131.15 17.54Q129.75 19.69 126.96 19.69ZM126.73 9.74L126.73 9.74Q125.58 9.74 124.80 10.58Q124.02 11.41 123.84 12.92L123.84 12.92L129.39 12.92L129.39 12.78Q129.31 11.33 128.61 10.54Q127.92 9.74 126.73 9.74ZM142.32 19.48L140.33 19.48Q140.17 19.15 140.07 18.31L140.07 18.31Q138.75 19.69 136.91 19.69L136.91 19.69Q135.27 19.69 134.22 18.76Q133.17 17.83 133.17 16.41L133.17 16.41Q133.17 14.67 134.49 13.71Q135.80 12.76 138.19 12.76L138.19 12.76L140.04 12.76L140.04 11.88Q140.04 10.89 139.44 10.30Q138.85 9.71 137.69 9.71L137.69 9.71Q136.67 9.71 135.99 10.22Q135.30 10.74 135.30 11.46L135.30 11.46L133.39 11.46Q133.39 10.63 133.98 9.86Q134.57 9.08 135.58 8.63Q136.59 8.18 137.80 8.18L137.80 8.18Q139.72 8.18 140.81 9.14Q141.89 10.10 141.93 11.78L141.93 11.78L141.93 16.89Q141.93 18.42 142.32 19.32L142.32 19.32L142.32 19.48ZM137.19 18.04L137.19 18.04Q138.08 18.04 138.88 17.58Q139.68 17.11 140.04 16.38L140.04 16.38L140.04 14.10L138.55 14.10Q135.06 14.10 135.06 16.14L135.06 16.14Q135.06 17.03 135.66 17.53Q136.25 18.04 137.19 18.04ZM146.97 3.73L146.97 19.48L145.07 19.48L145.07 3.73L146.97 3.73ZM159.81 19.69L159.81 19.69Q157.55 19.69 156.14 18.21Q154.72 16.72 154.72 14.24L154.72 14.24L154.72 13.89Q154.72 12.24 155.35 10.95Q155.98 9.65 157.12 8.92Q158.25 8.18 159.57 8.18L159.57 8.18Q161.73 8.18 162.93 9.61Q164.13 11.03 164.13 13.69L164.13 13.69L164.13 14.48L156.62 14.48Q156.66 16.12 157.58 17.13Q158.49 18.14 159.91 18.14L159.91 18.14Q160.91 18.14 161.61 17.73Q162.31 17.32 162.83 16.64L162.83 16.64L163.99 17.54Q162.60 19.69 159.81 19.69ZM159.57 9.74L159.57 9.74Q158.42 9.74 157.64 10.58Q156.86 11.41 156.68 12.92L156.68 12.92L162.24 12.92L162.24 12.78Q162.16 11.33 161.46 10.54Q160.76 9.74 159.57 9.74ZM172.79 16.54L172.79 16.54Q172.79 15.77 172.21 15.34Q171.63 14.92 170.19 14.61Q168.75 14.30 167.90 13.87Q167.06 13.44 166.65 12.85Q166.25 12.25 166.25 11.43L166.25 11.43Q166.25 10.07 167.40 9.13Q168.55 8.18 170.35 8.18L170.35 8.18Q172.23 8.18 173.41 9.16Q174.58 10.13 174.58 11.65L174.58 11.65L172.68 11.65Q172.68 10.87 172.01 10.31Q171.35 9.74 170.35 9.74L170.35 9.74Q169.31 9.74 168.73 10.19Q168.14 10.64 168.14 11.37L168.14 11.37Q168.14 12.06 168.69 12.41Q169.23 12.76 170.65 13.07Q172.07 13.39 172.95 13.83Q173.83 14.27 174.26 14.89Q174.69 15.51 174.69 16.41L174.69 16.41Q174.69 17.89 173.50 18.79Q172.31 19.69 170.41 19.69L170.41 19.69Q169.08 19.69 168.05 19.22Q167.03 18.74 166.45 17.90Q165.87 17.05 165.87 16.07L165.87 16.07L167.76 16.07Q167.82 17.02 168.53 17.58Q169.24 18.14 170.41 18.14L170.41 18.14Q171.49 18.14 172.14 17.70Q172.79 17.27 172.79 16.54ZM177.83 5.70L179.73 5.70L179.73 8.39L181.80 8.39L181.80 9.85L179.73 9.85L179.73 16.73Q179.73 17.40 180.01 17.73Q180.28 18.07 180.95 18.07L180.95 18.07Q181.28 18.07 181.85 17.94L181.85 17.94L181.85 19.48Q181.10 19.69 180.40 19.69L180.40 19.69Q179.13 19.69 178.48 18.92Q177.83 18.15 177.83 16.73L177.83 16.73L177.83 9.85L175.81 9.85L175.81 8.39L177.83 8.39L177.83 5.70ZM192.86 19.48L190.87 19.48Q190.70 19.15 190.60 18.31L190.60 18.31Q189.28 19.69 187.44 19.69L187.44 19.69Q185.80 19.69 184.75 18.76Q183.70 17.83 183.70 16.41L183.70 16.41Q183.70 14.67 185.02 13.71Q186.33 12.76 188.72 12.76L188.72 12.76L190.57 12.76L190.57 11.88Q190.57 10.89 189.97 10.30Q189.38 9.71 188.22 9.71L188.22 9.71Q187.21 9.71 186.52 10.22Q185.83 10.74 185.83 11.46L185.83 11.46L183.92 11.46Q183.92 10.63 184.51 9.86Q185.10 9.08 186.11 8.63Q187.12 8.18 188.33 8.18L188.33 8.18Q190.25 8.18 191.34 9.14Q192.42 10.10 192.47 11.78L192.47 11.78L192.47 16.89Q192.47 18.42 192.86 19.32L192.86 19.32L192.86 19.48ZM187.72 18.04L187.72 18.04Q188.61 18.04 189.41 17.58Q190.21 17.11 190.57 16.38L190.57 16.38L190.57 14.10L189.08 14.10Q185.60 14.10 185.60 16.14L185.60 16.14Q185.60 17.03 186.19 17.53Q186.79 18.04 187.72 18.04ZM196.12 5.70L198.01 5.70L198.01 8.39L200.08 8.39L200.08 9.85L198.01 9.85L198.01 16.73Q198.01 17.40 198.29 17.73Q198.57 18.07 199.23 18.07L199.23 18.07Q199.56 18.07 200.14 17.94L200.14 17.94L200.14 19.48Q199.39 19.69 198.68 19.69L198.68 19.69Q197.41 19.69 196.76 18.92Q196.12 18.15 196.12 16.73L196.12 16.73L196.12 9.85L194.10 9.85L194.10 8.39L196.12 8.39L196.12 5.70ZM206.90 19.69L206.90 19.69Q204.65 19.69 203.23 18.21Q201.82 16.72 201.82 14.24L201.82 14.24L201.82 13.89Q201.82 12.24 202.45 10.95Q203.08 9.65 204.21 8.92Q205.34 8.18 206.67 8.18L206.67 8.18Q208.83 8.18 210.03 9.61Q211.23 11.03 211.23 13.69L211.23 13.69L211.23 14.48L203.71 14.48Q203.76 16.12 204.67 17.13Q205.59 18.14 207.01 18.14L207.01 18.14Q208.01 18.14 208.71 17.73Q209.41 17.32 209.93 16.64L209.93 16.64L211.09 17.54Q209.69 19.69 206.90 19.69ZM206.67 9.74L206.67 9.74Q205.52 9.74 204.74 10.58Q203.96 11.41 203.78 12.92L203.78 12.92L209.33 12.92L209.33 12.78Q209.25 11.33 208.55 10.54Q207.86 9.74 206.67 9.74Z" transform="translate(0, 0)"></path></g></svg> <svg y="318.0249996185303" viewBox="2.9000000953674316 13.100000381469727 574.7520141601562 36.400001525878906" x="0.1240386962890625" height="36.400001525878906" width="574.7520141601562" style="overflow: visible;"><g fill="#FFFFFF" fill-opacity="1" style=""><path d="M12.55 13.10L12.55 13.10Q13.35 13.10 14.28 13.20Q15.20 13.30 16.07 13.48Q16.95 13.65 17.68 13.83Q18.40 14 18.80 14.20L18.80 14.20L18.80 19.75L18.35 19.75Q18.35 17.35 16.70 15.98Q15.05 14.60 12.70 14.60L12.70 14.60Q9.95 14.60 8.25 16.33Q6.55 18.05 6.55 20.35L6.55 20.35Q6.55 21.30 6.98 22.58Q7.40 23.85 8.55 24.95L8.55 24.95L18.40 34.05Q19.90 35.45 20.40 37.05Q20.90 38.65 20.90 40.15L20.90 40.15Q20.90 44.30 18.38 46.90Q15.85 49.50 11.55 49.50L11.55 49.50Q10.35 49.50 8.72 49.25Q7.10 49.00 5.58 48.38Q4.05 47.75 3.05 46.75L3.05 46.75Q2.90 45.95 2.90 44.75Q2.90 43.55 3.10 42.23Q3.30 40.90 3.65 39.80L3.65 39.80L4.10 39.80Q3.85 42.35 4.75 44.25Q5.65 46.15 7.38 47.13Q9.10 48.10 11.30 48.00L11.30 48.00Q14.05 47.85 16.03 46.08Q18 44.30 18 41.30L18 41.30Q18 39.85 17.50 38.68Q17 37.50 16.05 36.65L16.05 36.65L6.45 27.75Q4.95 26.35 4.35 24.68Q3.75 23.00 3.75 21.55L3.75 21.55Q3.75 19.45 4.75 17.50Q5.75 15.55 7.73 14.33Q9.70 13.10 12.55 13.10ZM15 13.60L18.80 13.60L18.80 14.65L15 14.65L15 13.60ZM36.30 13.10L36.30 13.10Q37.10 13.10 38.02 13.20Q38.95 13.30 39.83 13.48Q40.70 13.65 41.42 13.83Q42.15 14 42.55 14.20L42.55 14.20L42.55 19.75L42.10 19.75Q42.10 17.35 40.45 15.98Q38.80 14.60 36.45 14.60L36.45 14.60Q33.70 14.60 32 16.33Q30.30 18.05 30.30 20.35L30.30 20.35Q30.30 21.30 30.73 22.58Q31.15 23.85 32.30 24.95L32.30 24.95L42.15 34.05Q43.65 35.45 44.15 37.05Q44.65 38.65 44.65 40.15L44.65 40.15Q44.65 44.30 42.13 46.90Q39.60 49.50 35.30 49.50L35.30 49.50Q34.10 49.50 32.48 49.25Q30.85 49.00 29.32 48.38Q27.80 47.75 26.80 46.75L26.80 46.75Q26.65 45.95 26.65 44.75Q26.65 43.55 26.85 42.23Q27.05 40.90 27.40 39.80L27.40 39.80L27.85 39.80Q27.60 42.35 28.50 44.25Q29.40 46.15 31.13 47.13Q32.85 48.10 35.05 48.00L35.05 48.00Q37.80 47.85 39.78 46.08Q41.75 44.30 41.75 41.30L41.75 41.30Q41.75 39.85 41.25 38.68Q40.75 37.50 39.80 36.65L39.80 36.65L30.20 27.75Q28.70 26.35 28.10 24.68Q27.50 23.00 27.50 21.55L27.50 21.55Q27.50 19.45 28.50 17.50Q29.50 15.55 31.48 14.33Q33.45 13.10 36.30 13.10ZM38.75 13.60L42.55 13.60L42.55 14.65L38.75 14.65L38.75 13.60ZM55.15 13.80L55.15 13.80L60.45 13.80Q63.95 13.80 66.38 14.85Q68.80 15.90 70.05 17.78Q71.30 19.65 71.30 22.15L71.30 22.15Q71.30 24.25 70.50 25.83Q69.70 27.40 68.45 28.38Q67.20 29.35 65.80 29.75L65.80 29.75Q68.45 30.15 70.38 31.50Q72.30 32.85 73.33 34.88Q74.35 36.90 74.35 39.40L74.35 39.40Q74.35 42.20 73 44.33Q71.65 46.45 69.03 47.63Q66.40 48.80 62.70 48.80L62.70 48.80L57.15 48.80Q57.15 48.80 57.17 48.35Q57.20 47.90 57.20 47.45Q57.20 47.00 57.20 47.00L57.20 47.00L62.50 47.00Q65.10 47.00 66.90 46.08Q68.70 45.15 69.65 43.35Q70.60 41.55 70.60 39.05L70.60 39.05Q70.60 36.25 69.53 34.50Q68.45 32.75 66.75 31.85Q65.05 30.95 63.08 30.63Q61.10 30.30 59.30 30.30L59.30 30.30L59.30 29.85Q60.45 29.85 61.85 29.60Q63.25 29.35 64.55 28.60Q65.85 27.85 66.70 26.38Q67.55 24.90 67.55 22.50L67.55 22.50Q67.55 20.25 66.72 18.65Q65.90 17.05 64.28 16.23Q62.65 15.40 60.25 15.40L60.25 15.40L55.65 15.40Q55.65 15.35 55.52 14.98Q55.40 14.60 55.27 14.20Q55.15 13.80 55.15 13.80ZM54.35 13.80L57.60 13.80L57.60 48.80L54.35 48.80L54.35 13.80ZM54.35 45.15L54.50 45.15L54.50 48.80L50.50 48.80L50.55 48.30Q50.65 48.30 50.88 48.30Q51.10 48.30 51.15 48.30L51.15 48.30Q52.45 48.30 53.40 47.38Q54.35 46.45 54.35 45.15L54.35 45.15ZM54.50 13.80L54.50 17.45L54.35 17.45Q54.35 16.15 53.40 15.23Q52.45 14.30 51.15 14.30L51.15 14.30Q51.10 14.30 50.88 14.30Q50.65 14.30 50.55 14.30L50.55 14.30L50.50 13.80L54.50 13.80ZM98.75 13.80L98.75 13.80L105.35 13.80Q108.55 13.80 110.85 14.95Q113.15 16.10 114.40 18.28Q115.65 20.45 115.65 23.45L115.65 23.45Q115.65 25.75 114.75 27.58Q113.85 29.40 112.35 30.65Q110.85 31.90 108.95 32.53Q107.05 33.15 105.03 33Q103 32.85 101.10 31.85L101.10 31.85L101.10 31.35Q101.10 31.35 101.95 31.48Q102.80 31.60 104.13 31.53Q105.45 31.45 106.92 30.98Q108.40 30.50 109.67 29.30Q110.95 28.10 111.60 25.95L111.60 25.95Q111.75 25.40 111.85 24.58Q111.95 23.75 111.90 22.95L111.90 22.95Q111.85 19.50 110.10 17.40Q108.35 15.30 105.15 15.30L105.15 15.30L99.25 15.30Q99.25 15.30 99.13 14.93Q99 14.55 98.88 14.18Q98.75 13.80 98.75 13.80ZM96.15 13.80L99.40 13.80L99.40 48.80L96.15 48.80L96.15 13.80ZM96.15 45.15L96.30 45.15L96.30 48.80L92.30 48.80L92.30 48.30Q92.30 48.30 92.63 48.30Q92.95 48.30 92.95 48.30L92.95 48.30Q94.25 48.30 95.17 47.38Q96.10 46.45 96.15 45.15L96.15 45.15ZM96.30 13.80L96.30 17.45L96.15 17.45Q96.15 16.15 95.20 15.23Q94.25 14.30 92.95 14.30L92.95 14.30Q92.95 14.30 92.65 14.30Q92.35 14.30 92.35 14.30L92.35 14.30L92.30 13.80L96.30 13.80ZM99.25 48.80L99.25 45.15L99.40 45.15Q99.45 46.45 100.38 47.38Q101.30 48.30 102.60 48.30L102.60 48.30Q102.60 48.30 102.92 48.30Q103.25 48.30 103.25 48.30L103.25 48.30L103.25 48.80L99.25 48.80ZM126.50 18.80L126.50 18.80L132.95 18.80Q135.30 18.80 137.18 19.35Q139.05 19.90 140.38 20.95Q141.70 22.00 142.40 23.50Q143.10 25.00 143.10 26.90L143.10 26.90Q143.10 29.00 142.10 30.80Q141.10 32.60 139.33 33.75Q137.55 34.90 135.30 35.15L135.30 35.15Q136.15 35.50 137.28 36.70Q138.40 37.90 139.20 39.05L139.20 39.05Q139.20 39.05 139.85 39.93Q140.50 40.80 141.53 42.08Q142.55 43.35 143.55 44.50L143.55 44.50Q144.60 45.65 145.48 46.50Q146.35 47.35 147.38 47.83Q148.40 48.30 149.75 48.30L149.75 48.30L149.75 48.80L148.20 48.80Q145.45 48.80 143.68 48.10Q141.90 47.40 140.80 46.38Q139.70 45.35 138.90 44.40L138.90 44.40Q138.70 44.15 137.98 43.13Q137.25 42.10 136.40 40.90Q135.55 39.70 134.85 38.73Q134.15 37.75 134 37.55L134 37.55Q133 36.25 131.70 35.23Q130.40 34.20 128.95 34.20L128.95 34.20L128.95 33.70Q128.95 33.70 129.75 33.73Q130.55 33.75 131.80 33.70L131.80 33.70Q133.20 33.65 134.60 33.48Q136 33.30 137.23 32.40Q138.45 31.50 139.15 29.40L139.15 29.40Q139.35 28.85 139.45 28.10Q139.55 27.35 139.50 26.55L139.50 26.55Q139.45 25.15 138.98 24.05Q138.50 22.95 137.63 22.15Q136.75 21.35 135.55 20.90Q134.35 20.45 132.85 20.40L132.85 20.40Q130.50 20.30 128.75 20.35Q127 20.40 127 20.35L127 20.35Q127 20.30 126.88 19.93Q126.75 19.55 126.63 19.18Q126.50 18.80 126.50 18.80ZM123.90 18.80L127.10 18.80L127.10 48.80L123.90 48.80L123.90 18.80ZM123.95 45.60L124.05 45.60L124.65 48.80L120.40 48.80L120.40 48.30Q120.40 48.30 120.75 48.30Q121.10 48.30 121.10 48.30L121.10 48.30Q122.30 48.30 123.10 47.50Q123.90 46.70 123.95 45.60L123.95 45.60ZM124.65 18.80L124.05 21.95L123.95 21.95Q123.90 20.80 123.10 20.05Q122.30 19.30 121.10 19.30L121.10 19.30Q121.10 19.30 120.75 19.30Q120.40 19.30 120.40 19.30L120.40 19.30L120.40 18.80L124.65 18.80ZM126.35 48.80L126.95 45.60L127.10 45.60Q127.15 46.70 127.95 47.50Q128.75 48.30 129.95 48.30L129.95 48.30Q129.95 48.30 130.28 48.30Q130.60 48.30 130.60 48.30L130.60 48.30L130.65 48.80L126.35 48.80ZM166.60 18.10L166.60 18.10Q170.10 18.10 173.18 19.23Q176.25 20.35 178.57 22.45Q180.90 24.55 182.20 27.43Q183.50 30.30 183.50 33.80L183.50 33.80Q183.50 37.30 182.20 40.18Q180.90 43.05 178.57 45.15Q176.25 47.25 173.18 48.38Q170.10 49.50 166.60 49.50L166.60 49.50Q163.10 49.50 160.05 48.38Q157 47.25 154.68 45.15Q152.35 43.05 151.05 40.18Q149.75 37.30 149.75 33.80L149.75 33.80Q149.75 30.30 151.05 27.43Q152.35 24.55 154.68 22.45Q157 20.35 160.05 19.23Q163.10 18.10 166.60 18.10ZM166.60 48.00L166.60 48.00Q170.30 48.00 173.30 46.20Q176.30 44.40 178.05 41.20Q179.80 38 179.80 33.80L179.80 33.80Q179.80 29.55 178.05 26.38Q176.30 23.20 173.30 21.40Q170.30 19.60 166.60 19.60L166.60 19.60Q162.95 19.60 159.95 21.40Q156.95 23.20 155.20 26.38Q153.45 29.55 153.45 33.80L153.45 33.80Q153.45 38 155.20 41.20Q156.95 44.40 159.95 46.20Q162.95 48.00 166.60 48.00ZM194.10 18.80L194.10 18.80L199.65 18.80Q203.15 18.80 205.70 19.83Q208.25 20.85 209.65 22.78Q211.05 24.70 211.05 27.35L211.05 27.35Q211.05 30.20 209.77 32.23Q208.50 34.25 206.40 35.33Q204.30 36.40 201.75 36.38Q199.20 36.35 196.65 35.10L196.65 35.10L196.65 34.60Q196.65 34.60 197.47 34.75Q198.30 34.90 199.60 34.88Q200.90 34.85 202.35 34.43Q203.80 34 205.07 32.85Q206.35 31.70 207.10 29.55L207.10 29.55Q207.30 29.00 207.38 28.25Q207.45 27.50 207.45 26.85L207.45 26.85Q207.45 23.80 205.35 22.05Q203.25 20.30 199.55 20.30L199.55 20.30L194.65 20.30Q194.65 20.30 194.52 19.93Q194.40 19.55 194.25 19.18Q194.10 18.80 194.10 18.80ZM191.55 18.80L194.75 18.80L194.75 48.80L191.55 48.80L191.55 18.80ZM191.55 45.60L191.65 45.60L192.30 48.80L187.95 48.80L187.95 48.30Q187.95 48.30 188.30 48.30Q188.65 48.30 188.65 48.30L188.65 48.30Q189.85 48.30 190.67 47.50Q191.50 46.70 191.55 45.60L191.55 45.60ZM192.30 18.80L191.65 21.95L191.55 21.95Q191.50 20.80 190.67 20.05Q189.85 19.30 188.65 19.30L188.65 19.30Q188.65 19.30 188.30 19.30Q187.95 19.30 187.95 19.30L187.95 19.30L187.95 18.80L192.30 18.80ZM193.95 48.80L194.60 45.60L194.70 45.60Q194.75 46.70 195.57 47.50Q196.40 48.30 197.60 48.30L197.60 48.30Q197.65 48.30 197.97 48.30Q198.30 48.30 198.30 48.30L198.30 48.30L198.30 48.80L193.95 48.80ZM219.20 18.80L222.40 18.80L222.40 48.80L219.20 48.80L219.20 18.80ZM222.30 47.25L235.85 47.25L235.75 48.80L222.30 48.80L222.30 47.25ZM222.30 33.05L233.50 33.05L233.50 34.55L222.30 34.55L222.30 33.05ZM222.30 18.80L235.80 18.80L235.80 20.35L222.30 20.35L222.30 18.80ZM238.15 41.65L238.65 41.65L235.90 48.80L228.30 48.80L230 47.25Q232.50 47.25 234.03 46.53Q235.55 45.80 236.50 44.53Q237.45 43.25 238.15 41.65L238.15 41.65ZM230.90 34.45L233.50 34.45L233.50 37.30L232.95 37.30L232.95 36.65Q232.95 35.80 232.45 35.18Q231.95 34.55 230.90 34.55L230.90 34.55L230.90 34.45ZM232.95 30.30L233.50 30.30L233.50 33.15L230.90 33.15L230.90 33.05Q231.95 33.05 232.45 32.43Q232.95 31.80 232.95 30.95L232.95 30.95L232.95 30.30ZM232.75 20.20L235.80 20.20L235.80 23.65L235.25 23.65L235.25 22.90Q235.25 21.85 234.57 21.10Q233.90 20.35 232.75 20.35L232.75 20.35L232.75 20.20ZM235.80 18.00L235.80 18.00L235.80 19.30L230.10 18.80Q231.65 18.80 233.40 18.53Q235.15 18.25 235.80 18.00ZM219.20 45.60L219.30 45.60L219.95 48.80L215.60 48.80L215.60 48.30Q215.60 48.30 215.95 48.30Q216.30 48.30 216.30 48.30L216.30 48.30Q217.55 48.30 218.35 47.50Q219.15 46.70 219.20 45.60L219.20 45.60ZM219.95 18.80L219.30 21.95L219.20 21.95Q219.15 20.80 218.35 20.05Q217.55 19.30 216.30 19.30L216.30 19.30Q216.30 19.30 215.95 19.30Q215.60 19.30 215.60 19.30L215.60 19.30L215.60 18.80L219.95 18.80ZM248.50 18.80L248.50 18.80L254.95 18.80Q257.30 18.80 259.18 19.35Q261.05 19.90 262.38 20.95Q263.70 22.00 264.40 23.50Q265.10 25.00 265.10 26.90L265.10 26.90Q265.10 29.00 264.10 30.80Q263.10 32.60 261.32 33.75Q259.55 34.90 257.30 35.15L257.30 35.15Q258.15 35.50 259.27 36.70Q260.40 37.90 261.20 39.05L261.20 39.05Q261.20 39.05 261.85 39.93Q262.50 40.80 263.52 42.08Q264.55 43.35 265.55 44.50L265.55 44.50Q266.60 45.65 267.48 46.50Q268.35 47.35 269.38 47.83Q270.40 48.30 271.75 48.30L271.75 48.30L271.75 48.80L270.20 48.80Q267.45 48.80 265.68 48.10Q263.90 47.40 262.80 46.38Q261.70 45.35 260.90 44.40L260.90 44.40Q260.70 44.15 259.98 43.13Q259.25 42.10 258.40 40.90Q257.55 39.70 256.85 38.73Q256.15 37.75 256 37.55L256 37.55Q255 36.25 253.70 35.23Q252.40 34.20 250.95 34.20L250.95 34.20L250.95 33.70Q250.95 33.70 251.75 33.73Q252.55 33.75 253.80 33.70L253.80 33.70Q255.20 33.65 256.60 33.48Q258 33.30 259.23 32.40Q260.45 31.50 261.15 29.40L261.15 29.40Q261.35 28.85 261.45 28.10Q261.55 27.35 261.50 26.55L261.50 26.55Q261.45 25.15 260.98 24.05Q260.50 22.95 259.63 22.15Q258.75 21.35 257.55 20.90Q256.35 20.45 254.85 20.40L254.85 20.40Q252.50 20.30 250.75 20.35Q249 20.40 249 20.35L249 20.35Q249 20.30 248.88 19.93Q248.75 19.55 248.63 19.18Q248.50 18.80 248.50 18.80ZM245.90 18.80L249.10 18.80L249.10 48.80L245.90 48.80L245.90 18.80ZM245.95 45.60L246.05 45.60L246.65 48.80L242.40 48.80L242.40 48.30Q242.40 48.30 242.75 48.30Q243.10 48.30 243.10 48.30L243.10 48.30Q244.30 48.30 245.10 47.50Q245.90 46.70 245.95 45.60L245.95 45.60ZM246.65 18.80L246.05 21.95L245.95 21.95Q245.90 20.80 245.10 20.05Q244.30 19.30 243.10 19.30L243.10 19.30Q243.10 19.30 242.75 19.30Q242.40 19.30 242.40 19.30L242.40 19.30L242.40 18.80L246.65 18.80ZM248.35 48.80L248.95 45.60L249.10 45.60Q249.15 46.70 249.95 47.50Q250.75 48.30 251.95 48.30L251.95 48.30Q251.95 48.30 252.28 48.30Q252.60 48.30 252.60 48.30L252.60 48.30L252.65 48.80L248.35 48.80ZM282.60 18.95L285.85 18.95L285.85 48.80L282.60 48.80L282.60 18.95ZM270.50 18.75L297.95 18.75L297.95 20.25L270.50 20.25L270.50 18.75ZM294.90 20.15L297.95 20.15L297.95 23.60L297.40 23.60L297.40 22.80Q297.40 21.75 296.73 21.03Q296.05 20.30 294.90 20.25L294.90 20.25L294.90 20.15ZM297.95 17.95L297.95 17.95L297.95 19.25L292.35 18.75Q293.35 18.75 294.48 18.63Q295.60 18.50 296.55 18.30Q297.50 18.10 297.95 17.95ZM282.60 45.60L282.70 45.60L282.70 48.80L279.05 48.80L279.05 48.30Q279.10 48.30 279.38 48.30Q279.65 48.30 279.65 48.30L279.65 48.30Q280.85 48.30 281.70 47.50Q282.55 46.70 282.60 45.60L282.60 45.60ZM285.70 48.80L285.70 45.60L285.85 45.60Q285.90 46.70 286.75 47.50Q287.60 48.30 288.80 48.30L288.80 48.30Q288.80 48.30 289.07 48.30Q289.35 48.30 289.35 48.30L289.35 48.30L289.35 48.80L285.70 48.80ZM270.50 20.15L273.55 20.15L273.55 20.25Q272.40 20.30 271.73 21.03Q271.05 21.75 271.05 22.80L271.05 22.80L271.05 23.60L270.50 23.60L270.50 20.15ZM270.50 19.25L270.50 17.95Q270.95 18.10 271.88 18.30Q272.80 18.50 273.95 18.63Q275.10 18.75 276.10 18.75L276.10 18.75L270.50 19.25ZM302.25 18.85L306.60 18.85L315.85 35.30L313.80 37.05L302.25 18.85ZM313.35 35.90L316.60 35.90L316.60 48.80L313.35 48.80L313.35 35.90ZM314.40 36.40L325 18.85L328.15 18.85L316.25 36.95L314.40 36.40ZM326.25 21.85L323.10 22.00Q323.65 21.00 323.15 20.15Q322.65 19.30 321.55 19.30L321.55 19.30Q321.55 19.30 321.25 19.30Q320.95 19.30 320.95 19.30L320.95 19.30L320.95 18.80L331.40 18.80L331.40 19.30L330.80 19.30Q329.40 19.30 328.17 20.08Q326.95 20.85 326.25 21.85L326.25 21.85ZM308.35 21.95L308.35 21.95L304.10 21.80Q303.30 20.65 302.13 19.98Q300.95 19.30 299.50 19.30L299.50 19.30L298.90 19.30L298.90 18.80L310.50 18.80L310.50 19.30Q310.50 19.30 310.20 19.30Q309.90 19.30 309.90 19.30L309.90 19.30Q308.80 19.30 308.32 20.18Q307.85 21.05 308.35 21.95ZM313.35 45.60L313.50 45.60L313.50 48.80L309.85 48.80L309.85 48.30Q309.90 48.30 310.17 48.30Q310.45 48.30 310.45 48.30L310.45 48.30Q311.65 48.30 312.47 47.50Q313.30 46.70 313.35 45.60L313.35 45.60ZM316.45 48.80L316.45 45.60L316.60 45.60Q316.65 46.70 317.47 47.50Q318.30 48.30 319.50 48.30L319.50 48.30Q319.50 48.30 319.80 48.30Q320.10 48.30 320.10 48.30L320.10 48.30L320.10 48.80L316.45 48.80ZM353.10 13.80L353.10 13.80L359.70 13.80Q362.90 13.80 365.20 14.95Q367.50 16.10 368.75 18.28Q370 20.45 370 23.45L370 23.45Q370 25.75 369.10 27.58Q368.20 29.40 366.70 30.65Q365.20 31.90 363.30 32.53Q361.40 33.15 359.38 33Q357.35 32.85 355.45 31.85L355.45 31.85L355.45 31.35Q355.45 31.35 356.30 31.48Q357.15 31.60 358.47 31.53Q359.80 31.45 361.27 30.98Q362.75 30.50 364.02 29.30Q365.30 28.10 365.95 25.95L365.95 25.95Q366.10 25.40 366.20 24.58Q366.30 23.75 366.25 22.95L366.25 22.95Q366.20 19.50 364.45 17.40Q362.70 15.30 359.50 15.30L359.50 15.30L353.60 15.30Q353.60 15.30 353.47 14.93Q353.35 14.55 353.22 14.18Q353.10 13.80 353.10 13.80ZM350.50 13.80L353.75 13.80L353.75 48.80L350.50 48.80L350.50 13.80ZM350.50 45.15L350.65 45.15L350.65 48.80L346.65 48.80L346.65 48.30Q346.65 48.30 346.97 48.30Q347.30 48.30 347.30 48.30L347.30 48.30Q348.60 48.30 349.52 47.38Q350.45 46.45 350.50 45.15L350.50 45.15ZM350.65 13.80L350.65 17.45L350.50 17.45Q350.50 16.15 349.55 15.23Q348.60 14.30 347.30 14.30L347.30 14.30Q347.30 14.30 347 14.30Q346.70 14.30 346.70 14.30L346.70 14.30L346.65 13.80L350.65 13.80ZM353.60 48.80L353.60 45.15L353.75 45.15Q353.80 46.45 354.72 47.38Q355.65 48.30 356.95 48.30L356.95 48.30Q356.95 48.30 357.27 48.30Q357.60 48.30 357.60 48.30L357.60 48.30L357.60 48.80L353.60 48.80ZM383.95 22.55L384.80 18.10L398.55 48.50L394.60 48.50L383.95 22.55ZM372.20 45.15L375.15 45.15Q374.60 46.65 375.30 47.48Q376 48.30 376.90 48.30L376.90 48.30L377.30 48.30L377.30 48.80L367.75 48.80L367.75 48.30Q367.75 48.30 367.95 48.30Q368.15 48.30 368.15 48.30L368.15 48.30Q369.20 48.30 370.30 47.58Q371.40 46.85 372.20 45.15L372.20 45.15ZM384.35 18.10L384.80 18.10L385.15 21.55L373.70 48.65L370.55 48.65L382.40 23.25Q382.40 23.25 382.68 22.65Q382.95 22.05 383.32 21.18Q383.70 20.30 384 19.45Q384.30 18.60 384.35 18.10L384.35 18.10ZM377.45 37.15L390.70 37.15L390.70 38.65L377.45 38.65L377.45 37.15ZM393.25 45.15L393.25 45.15L397.05 45.15Q397.80 46.85 398.90 47.58Q400 48.30 401 48.30L401 48.30Q401 48.30 401.20 48.30Q401.40 48.30 401.40 48.30L401.40 48.30L401.40 48.80L391.15 48.80L391.15 48.30L391.55 48.30Q392.40 48.30 393.10 47.48Q393.80 46.65 393.25 45.15ZM410 18.80L410 18.80L416.45 18.80Q418.80 18.80 420.67 19.35Q422.55 19.90 423.88 20.95Q425.20 22.00 425.90 23.50Q426.60 25.00 426.60 26.90L426.60 26.90Q426.60 29.00 425.60 30.80Q424.60 32.60 422.82 33.75Q421.05 34.90 418.80 35.15L418.80 35.15Q419.65 35.50 420.77 36.70Q421.90 37.90 422.70 39.05L422.70 39.05Q422.70 39.05 423.35 39.93Q424 40.80 425.02 42.08Q426.05 43.35 427.05 44.50L427.05 44.50Q428.10 45.65 428.97 46.50Q429.85 47.35 430.88 47.83Q431.90 48.30 433.25 48.30L433.25 48.30L433.25 48.80L431.70 48.80Q428.95 48.80 427.17 48.10Q425.40 47.40 424.30 46.38Q423.20 45.35 422.40 44.40L422.40 44.40Q422.20 44.15 421.47 43.13Q420.75 42.10 419.90 40.90Q419.05 39.70 418.35 38.73Q417.65 37.75 417.50 37.55L417.50 37.55Q416.50 36.25 415.20 35.23Q413.90 34.20 412.45 34.20L412.45 34.20L412.45 33.70Q412.45 33.70 413.25 33.73Q414.05 33.75 415.30 33.70L415.30 33.70Q416.70 33.65 418.10 33.48Q419.50 33.30 420.72 32.40Q421.95 31.50 422.65 29.40L422.65 29.40Q422.85 28.85 422.95 28.10Q423.05 27.35 423 26.55L423 26.55Q422.95 25.15 422.47 24.05Q422 22.95 421.13 22.15Q420.25 21.35 419.05 20.90Q417.85 20.45 416.35 20.40L416.35 20.40Q414 20.30 412.25 20.35Q410.50 20.40 410.50 20.35L410.50 20.35Q410.50 20.30 410.38 19.93Q410.25 19.55 410.13 19.18Q410 18.80 410 18.80ZM407.40 18.80L410.60 18.80L410.60 48.80L407.40 48.80L407.40 18.80ZM407.45 45.60L407.55 45.60L408.15 48.80L403.90 48.80L403.90 48.30Q403.90 48.30 404.25 48.30Q404.60 48.30 404.60 48.30L404.60 48.30Q405.80 48.30 406.60 47.50Q407.40 46.70 407.45 45.60L407.45 45.60ZM408.15 18.80L407.55 21.95L407.45 21.95Q407.40 20.80 406.60 20.05Q405.80 19.30 404.60 19.30L404.60 19.30Q404.60 19.30 404.25 19.30Q403.90 19.30 403.90 19.30L403.90 19.30L403.90 18.80L408.15 18.80ZM409.85 48.80L410.45 45.60L410.60 45.60Q410.65 46.70 411.45 47.50Q412.25 48.30 413.45 48.30L413.45 48.30Q413.45 48.30 413.77 48.30Q414.10 48.30 414.10 48.30L414.10 48.30L414.15 48.80L409.85 48.80ZM444.10 18.95L447.35 18.95L447.35 48.80L444.10 48.80L444.10 18.95ZM432 18.75L459.45 18.75L459.45 20.25L432 20.25L432 18.75ZM456.40 20.15L459.45 20.15L459.45 23.60L458.90 23.60L458.90 22.80Q458.90 21.75 458.23 21.03Q457.55 20.30 456.40 20.25L456.40 20.25L456.40 20.15ZM459.45 17.95L459.45 17.95L459.45 19.25L453.85 18.75Q454.85 18.75 455.98 18.63Q457.10 18.50 458.05 18.30Q459 18.10 459.45 17.95ZM444.10 45.60L444.20 45.60L444.20 48.80L440.55 48.80L440.55 48.30Q440.60 48.30 440.88 48.30Q441.15 48.30 441.15 48.30L441.15 48.30Q442.35 48.30 443.20 47.50Q444.05 46.70 444.10 45.60L444.10 45.60ZM447.20 48.80L447.20 45.60L447.35 45.60Q447.40 46.70 448.25 47.50Q449.10 48.30 450.30 48.30L450.30 48.30Q450.30 48.30 450.57 48.30Q450.85 48.30 450.85 48.30L450.85 48.30L450.85 48.80L447.20 48.80ZM432 20.15L435.05 20.15L435.05 20.25Q433.90 20.30 433.23 21.03Q432.55 21.75 432.55 22.80L432.55 22.80L432.55 23.60L432 23.60L432 20.15ZM432 19.25L432 17.95Q432.45 18.10 433.38 18.30Q434.30 18.50 435.45 18.63Q436.60 18.75 437.60 18.75L437.60 18.75L432 19.25ZM466.05 23.25L465.55 18.05L493.25 44.15L493.75 49.50L466.05 23.25ZM465.50 45.70L465.65 45.70L465.65 48.80L461.90 48.80L461.90 48.30Q461.90 48.30 462.32 48.30Q462.75 48.30 462.75 48.30L462.75 48.30Q463.90 48.30 464.70 47.55Q465.50 46.80 465.50 45.70L465.50 45.70ZM467.60 45.70L467.75 45.70Q467.75 46.80 468.57 47.55Q469.40 48.30 470.50 48.30L470.50 48.30Q470.50 48.30 470.92 48.30Q471.35 48.30 471.35 48.30L471.35 48.30L471.35 48.80L467.60 48.80L467.60 45.70ZM465.05 18.05L465.55 18.05L467.70 20.85L467.75 48.80L465.50 48.80L465.50 24.30Q465.50 21.75 465.27 19.90Q465.05 18.05 465.05 18.05L465.05 18.05ZM491.55 18.80L493.75 18.80L493.75 43.10Q493.75 44.70 493.85 46.18Q493.95 47.65 494.07 48.58Q494.20 49.50 494.20 49.50L494.20 49.50L493.75 49.50L491.55 46.85L491.55 18.80ZM493.75 21.90L493.60 21.90L493.60 18.80L497.35 18.80L497.35 19.30Q497.35 19.30 496.92 19.30Q496.50 19.30 496.50 19.30L496.50 19.30Q495.40 19.30 494.57 20.05Q493.75 20.80 493.75 21.90L493.75 21.90ZM491.65 21.90L491.55 21.90Q491.50 20.80 490.70 20.05Q489.90 19.30 488.75 19.30L488.75 19.30Q488.75 19.30 488.32 19.30Q487.90 19.30 487.90 19.30L487.90 19.30L487.90 18.80L491.65 18.80L491.65 21.90ZM505.45 18.80L508.65 18.80L508.65 48.80L505.45 48.80L505.45 18.80ZM508.55 47.25L522.10 47.25L522 48.80L508.55 48.80L508.55 47.25ZM508.55 33.05L519.75 33.05L519.75 34.55L508.55 34.55L508.55 33.05ZM508.55 18.80L522.05 18.80L522.05 20.35L508.55 20.35L508.55 18.80ZM524.40 41.65L524.90 41.65L522.15 48.80L514.55 48.80L516.25 47.25Q518.75 47.25 520.27 46.53Q521.80 45.80 522.75 44.53Q523.70 43.25 524.40 41.65L524.40 41.65ZM517.15 34.45L519.75 34.45L519.75 37.30L519.20 37.30L519.20 36.65Q519.20 35.80 518.70 35.18Q518.20 34.55 517.15 34.55L517.15 34.55L517.15 34.45ZM519.20 30.30L519.75 30.30L519.75 33.15L517.15 33.15L517.15 33.05Q518.20 33.05 518.70 32.43Q519.20 31.80 519.20 30.95L519.20 30.95L519.20 30.30ZM519 20.20L522.05 20.20L522.05 23.65L521.50 23.65L521.50 22.90Q521.50 21.85 520.82 21.10Q520.15 20.35 519 20.35L519 20.35L519 20.20ZM522.05 18.00L522.05 18.00L522.05 19.30L516.35 18.80Q517.90 18.80 519.65 18.53Q521.40 18.25 522.05 18.00ZM505.45 45.60L505.55 45.60L506.20 48.80L501.85 48.80L501.85 48.30Q501.85 48.30 502.20 48.30Q502.55 48.30 502.55 48.30L502.55 48.30Q503.80 48.30 504.60 47.50Q505.40 46.70 505.45 45.60L505.45 45.60ZM506.20 18.80L505.55 21.95L505.45 21.95Q505.40 20.80 504.60 20.05Q503.80 19.30 502.55 19.30L502.55 19.30Q502.55 19.30 502.20 19.30Q501.85 19.30 501.85 19.30L501.85 19.30L501.85 18.80L506.20 18.80ZM534.75 18.80L534.75 18.80L541.20 18.80Q543.55 18.80 545.42 19.35Q547.30 19.90 548.63 20.95Q549.95 22.00 550.65 23.50Q551.35 25.00 551.35 26.90L551.35 26.90Q551.35 29.00 550.35 30.80Q549.35 32.60 547.57 33.75Q545.80 34.90 543.55 35.15L543.55 35.15Q544.40 35.50 545.52 36.70Q546.65 37.90 547.45 39.05L547.45 39.05Q547.45 39.05 548.10 39.93Q548.75 40.80 549.77 42.08Q550.80 43.35 551.80 44.50L551.80 44.50Q552.85 45.65 553.73 46.50Q554.60 47.35 555.63 47.83Q556.65 48.30 558 48.30L558 48.30L558 48.80L556.45 48.80Q553.70 48.80 551.92 48.10Q550.15 47.40 549.05 46.38Q547.95 45.35 547.15 44.40L547.15 44.40Q546.95 44.15 546.23 43.13Q545.50 42.10 544.65 40.90Q543.80 39.70 543.10 38.73Q542.40 37.75 542.25 37.55L542.25 37.55Q541.25 36.25 539.95 35.23Q538.65 34.20 537.20 34.20L537.20 34.20L537.20 33.70Q537.20 33.70 538 33.73Q538.80 33.75 540.05 33.70L540.05 33.70Q541.45 33.65 542.85 33.48Q544.25 33.30 545.48 32.40Q546.70 31.50 547.40 29.40L547.40 29.40Q547.60 28.85 547.70 28.10Q547.80 27.35 547.75 26.55L547.75 26.55Q547.70 25.15 547.23 24.05Q546.75 22.95 545.88 22.15Q545 21.35 543.80 20.90Q542.60 20.45 541.10 20.40L541.10 20.40Q538.75 20.30 537 20.35Q535.25 20.40 535.25 20.35L535.25 20.35Q535.25 20.30 535.13 19.93Q535 19.55 534.88 19.18Q534.75 18.80 534.75 18.80ZM532.15 18.80L535.35 18.80L535.35 48.80L532.15 48.80L532.15 18.80ZM532.20 45.60L532.30 45.60L532.90 48.80L528.65 48.80L528.65 48.30Q528.65 48.30 529 48.30Q529.35 48.30 529.35 48.30L529.35 48.30Q530.55 48.30 531.35 47.50Q532.15 46.70 532.20 45.60L532.20 45.60ZM532.90 18.80L532.30 21.95L532.20 21.95Q532.15 20.80 531.35 20.05Q530.55 19.30 529.35 19.30L529.35 19.30Q529.35 19.30 529 19.30Q528.65 19.30 528.65 19.30L528.65 19.30L528.65 18.80L532.90 18.80ZM534.60 48.80L535.20 45.60L535.35 45.60Q535.40 46.70 536.20 47.50Q537 48.30 538.20 48.30L538.20 48.30Q538.20 48.30 538.52 48.30Q538.85 48.30 538.85 48.30L538.85 48.30L538.90 48.80L534.60 48.80ZM568.95 18.10L568.95 18.10Q570.35 18.10 571.40 18.20Q572.45 18.30 573.23 18.43Q574 18.55 574.58 18.73Q575.15 18.90 575.60 19.05L575.60 19.05L575.65 24.00L575.05 24.00Q575.05 21.95 573.65 20.78Q572.25 19.60 569.30 19.60L569.30 19.60Q566.80 19.60 565.02 20.98Q563.25 22.35 563.30 24.35L563.30 24.35Q563.30 25.00 563.48 25.68Q563.65 26.35 564.08 27.00Q564.50 27.65 565.25 28.30L565.25 28.30L575.35 36.10Q576.50 37.05 577.05 38.53Q577.60 40 577.65 41.45L577.65 41.45Q577.70 43.65 576.50 45.50Q575.30 47.35 573.27 48.43Q571.25 49.50 568.80 49.50L568.80 49.50Q567.35 49.50 565.67 49.25Q564 49.00 562.55 48.48Q561.10 47.95 560.15 47.15L560.15 47.15Q560 46.45 560 45.38Q560 44.30 560.17 43.10Q560.35 41.90 560.65 40.95L560.65 40.95L561.25 40.95Q561.05 43.20 561.90 44.80Q562.75 46.40 564.40 47.23Q566.05 48.05 568.25 48.00L568.25 48.00Q571.35 47.90 573.13 46.43Q574.90 44.95 574.90 42.50L574.90 42.50Q574.90 41.30 574.48 40.33Q574.05 39.35 573.10 38.50L573.10 38.50L563.10 30.80Q561.70 29.60 561.20 28.15Q560.70 26.70 560.70 25.40L560.70 25.40Q560.70 23.35 561.80 21.70Q562.90 20.05 564.77 19.08Q566.65 18.10 568.95 18.10ZM572.05 18.55L575.55 18.55L575.60 19.45L572.05 19.45L572.05 18.55Z" transform="translate(0, 0)"></path></g></svg></svg>